<svg width="122" height="25" viewBox="0 0 122 25" fill="none" xmlns="http://www.w3.org/2000/svg">
<path d="M19.5 2.375C20.6731 2.375 21.625 3.3249 21.625 4.49902V9.54492C21.625 12.4906 20.8533 15.0754 19.3105 17.2617C17.771 19.4436 15.4902 21.1909 12.5293 22.5117C12.3617 22.5864 12.1818 22.625 12 22.625C11.8182 22.625 11.6383 22.5864 11.4707 22.5117C8.50989 21.191 6.22898 19.4436 4.68945 17.2617C3.14676 15.0753 2.37501 12.4901 2.375 9.54492V4.5C2.375 3.32639 3.32639 2.375 4.5 2.375H19.5Z" fill="black" stroke="#969696" stroke-width="1.25"/>
<g filter="url(#filter0_i_5_202)">
<circle cx="19.1667" cy="8.99999" r="1.33333" fill="#F6CF51"/>
</g>
<g filter="url(#filter1_i_5_202)">
<circle cx="16.5" cy="6.33333" r="1.33333" fill="#4CF078"/>
</g>
<g filter="url(#filter2_i_5_202)">
<circle cx="13.8333" cy="8.99999" r="1.33333" fill="#F85959"/>
</g>
<g filter="url(#filter3_i_5_202)">
<circle cx="16.5" cy="11.6667" r="1.33333" fill="#5E8FFA"/>
</g>
<path d="M12 13L6 18.3747L7 19.5L12 15.1667L17 19.5L18 18.3747L12 13Z" fill="#969696"/>
<g filter="url(#filter4_i_5_202)">
<path d="M3.5 7.93332V10.0667H5.63333L6.7 8.99999L5.63333 7.93332H3.5Z" fill="#969696"/>
</g>
<g filter="url(#filter5_i_5_202)">
<path d="M6.43333 13L8.56667 13L8.56667 10.8667L7.5 9.8L6.43333 10.8667L6.43333 13Z" fill="#969696"/>
</g>
<g filter="url(#filter6_i_5_202)">
<path d="M11.5 10.0667L11.5 7.93335L9.36667 7.93335L8.3 9.00001L9.36667 10.0667L11.5 10.0667Z" fill="#969696"/>
</g>
<g filter="url(#filter7_i_5_202)">
<path d="M8.56667 5L6.43333 5L6.43333 7.13333L7.5 8.2L8.56667 7.13333L8.56667 5Z" fill="#969696"/>
</g>
<path d="M29.12 6.8H31.616V13.488C31.616 14.1173 31.7813 14.5973 32.112 14.928C32.4427 15.248 32.9173 15.408 33.536 15.408C34.1653 15.408 34.6453 15.248 34.976 14.928C35.3067 14.5973 35.472 14.1173 35.472 13.488V6.8H37.968V13.488C37.968 16.432 36.4907 17.904 33.536 17.904C30.592 17.904 29.12 16.432 29.12 13.488V6.8ZM50.9018 7.232H53.6538L49.0298 17.888L46.4058 12.784L43.7978 17.888L39.1738 7.232H41.9098L44.0218 12.192L46.4218 6.992L48.8058 12.192L50.9018 7.232ZM67.0913 16.864C66.6433 17.1733 66.1473 17.4133 65.6033 17.584C65.0593 17.7547 64.4726 17.84 63.8433 17.84C63.0006 17.84 62.2326 17.696 61.5393 17.408C60.8459 17.12 60.2486 16.7307 59.7473 16.24C59.2566 15.7493 58.8779 15.1787 58.6113 14.528C58.3446 13.8773 58.2113 13.1893 58.2113 12.464C58.2113 11.728 58.3446 11.0293 58.6113 10.368C58.8886 9.70667 59.2726 9.12533 59.7633 8.624C60.2646 8.112 60.8566 7.70667 61.5393 7.408C62.2326 7.10933 63.0006 6.96 63.8433 6.96C64.4726 6.96 65.0539 7.056 65.5873 7.248C66.1313 7.42933 66.6326 7.68 67.0913 8L66.2593 10.224C66.0459 9.95733 65.7313 9.744 65.3153 9.584C64.9099 9.424 64.4193 9.344 63.8433 9.344C63.4059 9.344 63.0059 9.42933 62.6433 9.6C62.2913 9.77067 61.9873 10 61.7313 10.288C61.4753 10.576 61.2726 10.912 61.1233 11.296C60.9846 11.6693 60.9153 12.0587 60.9153 12.464C60.9153 12.88 60.9846 13.2693 61.1233 13.632C61.2726 13.9947 61.4753 14.3147 61.7313 14.592C61.9979 14.8587 62.3073 15.072 62.6593 15.232C63.0219 15.3813 63.4166 15.456 63.8433 15.456C64.0779 15.456 64.3286 15.4293 64.5953 15.376V13.92H63.3473V11.872H67.0913V16.864ZM71.7486 17.84C71.2686 17.84 70.8313 17.744 70.4366 17.552C70.0526 17.3493 69.722 17.0827 69.4446 16.752C69.1673 16.4107 68.954 16.016 68.8046 15.568C68.6553 15.1093 68.5806 14.6293 68.5806 14.128C68.5806 13.6267 68.6553 13.1467 68.8046 12.688C68.9646 12.2293 69.1833 11.8293 69.4606 11.488C69.738 11.136 70.0686 10.8587 70.4526 10.656C70.8473 10.4427 71.2793 10.336 71.7486 10.336C72.1966 10.336 72.5966 10.4267 72.9486 10.608C73.3006 10.7893 73.61 11.0347 73.8766 11.344V10.496H76.0526V17.712H73.8766V16.976C73.5993 17.2533 73.2846 17.4667 72.9326 17.616C72.5806 17.7653 72.186 17.84 71.7486 17.84ZM72.4046 12.448C72.1806 12.448 71.9726 12.496 71.7806 12.592C71.5886 12.6773 71.4233 12.8 71.2846 12.96C71.1566 13.1093 71.0553 13.2853 70.9806 13.488C70.906 13.6907 70.8686 13.8987 70.8686 14.112C70.8686 14.56 71.0126 14.9387 71.3006 15.248C71.5886 15.5573 71.9566 15.712 72.4046 15.712C72.65 15.712 72.8686 15.664 73.0606 15.568C73.2526 15.472 73.4126 15.3493 73.5406 15.2C73.6686 15.04 73.7646 14.8693 73.8286 14.688C73.9033 14.496 73.9406 14.304 73.9406 14.112C73.9406 13.6427 73.7966 13.248 73.5086 12.928C73.2313 12.608 72.8633 12.448 72.4046 12.448ZM88.5559 17.856H86.2679V13.824C86.2679 13.472 86.1932 13.1627 86.0439 12.896C85.8945 12.6293 85.6492 12.496 85.3079 12.496C85.1585 12.496 85.0145 12.5333 84.8759 12.608C84.7372 12.672 84.6145 12.768 84.5079 12.896C84.4012 13.0133 84.3159 13.152 84.2519 13.312C84.1879 13.472 84.1559 13.648 84.1559 13.84V17.856H81.8679V13.824C81.8679 13.472 81.7932 13.1627 81.6439 12.896C81.4945 12.6293 81.2492 12.496 80.9079 12.496C80.7585 12.496 80.6145 12.5333 80.4759 12.608C80.3372 12.672 80.2145 12.768 80.1079 12.896C80.0012 13.0133 79.9159 13.152 79.8519 13.312C79.7879 13.472 79.7559 13.648 79.7559 13.84V17.856H77.4839V10.48H79.6599V11.392C79.9265 11.0827 80.2359 10.8373 80.5879 10.656C80.9505 10.4747 81.3505 10.384 81.7879 10.384C82.5772 10.384 83.1852 10.7147 83.6119 11.376C83.8785 11.0773 84.2092 10.8373 84.6039 10.656C84.9985 10.4747 85.4359 10.384 85.9159 10.384C86.7159 10.384 87.3559 10.6613 87.8359 11.216C88.3159 11.76 88.5559 12.512 88.5559 13.472V17.856ZM91.8346 14.624C91.8986 14.9973 92.0746 15.3067 92.3626 15.552C92.6506 15.7973 93.0186 15.92 93.4666 15.92C93.808 15.92 94.096 15.856 94.3306 15.728C94.576 15.6 94.768 15.4293 94.9066 15.216L96.5546 16.256C96.256 16.7467 95.84 17.136 95.3066 17.424C94.784 17.7013 94.1706 17.84 93.4666 17.84C92.9013 17.84 92.384 17.744 91.9146 17.552C91.456 17.3493 91.0613 17.0827 90.7306 16.752C90.4 16.4107 90.144 16.016 89.9626 15.568C89.7813 15.1093 89.6906 14.6293 89.6906 14.128C89.6906 13.6267 89.776 13.1467 89.9466 12.688C90.1173 12.2293 90.3573 11.8293 90.6666 11.488C90.976 11.136 91.3493 10.8587 91.7866 10.656C92.224 10.4427 92.704 10.336 93.2266 10.336C93.7706 10.336 94.2613 10.4427 94.6986 10.656C95.136 10.8587 95.504 11.1413 95.8026 11.504C96.112 11.8667 96.3466 12.2987 96.5066 12.8C96.6666 13.2907 96.7466 13.8187 96.7466 14.384V14.624H91.8346ZM94.5066 13.28C94.4533 12.9493 94.3146 12.6827 94.0906 12.48C93.8773 12.2773 93.584 12.176 93.2106 12.176C92.8906 12.176 92.624 12.2827 92.4106 12.496C92.1973 12.6987 92.048 12.96 91.9626 13.28H94.5066ZM100.742 17.84C100.262 17.84 99.8244 17.744 99.4298 17.552C99.0458 17.3493 98.7151 17.0827 98.4378 16.752C98.1604 16.4107 97.9471 16.016 97.7978 15.568C97.6484 15.1093 97.5738 14.6293 97.5738 14.128C97.5738 13.6267 97.6484 13.1467 97.7978 12.688C97.9578 12.2293 98.1764 11.8293 98.4538 11.488C98.7311 11.136 99.0618 10.8587 99.4458 10.656C99.8404 10.4427 100.272 10.336 100.742 10.336C101.19 10.336 101.59 10.4267 101.942 10.608C102.294 10.7893 102.603 11.0347 102.87 11.344V7.296H105.046V17.712H102.87V16.976C102.592 17.2533 102.278 17.4667 101.926 17.616C101.574 17.7653 101.179 17.84 100.742 17.84ZM101.398 12.448C101.174 12.448 100.966 12.496 100.774 12.592C100.582 12.6773 100.416 12.8 100.278 12.96C100.15 13.1093 100.048 13.2853 99.9738 13.488C99.8991 13.6907 99.8618 13.8987 99.8618 14.112C99.8618 14.56 100.006 14.9387 100.294 15.248C100.582 15.5573 100.95 15.712 101.398 15.712C101.643 15.712 101.862 15.664 102.054 15.568C102.246 15.472 102.406 15.3493 102.534 15.2C102.662 15.04 102.758 14.8693 102.822 14.688C102.896 14.496 102.934 14.304 102.934 14.112C102.934 13.6427 102.79 13.248 102.502 12.928C102.224 12.608 101.856 12.448 101.398 12.448ZM108.429 14.624C108.493 14.9973 108.669 15.3067 108.957 15.552C109.245 15.7973 109.613 15.92 110.061 15.92C110.402 15.92 110.69 15.856 110.925 15.728C111.17 15.6 111.362 15.4293 111.501 15.216L113.149 16.256C112.85 16.7467 112.434 17.136 111.901 17.424C111.378 17.7013 110.765 17.84 110.061 17.84C109.496 17.84 108.978 17.744 108.509 17.552C108.05 17.3493 107.656 17.0827 107.325 16.752C106.994 16.4107 106.738 16.016 106.557 15.568C106.376 15.1093 106.285 14.6293 106.285 14.128C106.285 13.6267 106.37 13.1467 106.541 12.688C106.712 12.2293 106.952 11.8293 107.261 11.488C107.57 11.136 107.944 10.8587 108.381 10.656C108.818 10.4427 109.298 10.336 109.821 10.336C110.365 10.336 110.856 10.4427 111.293 10.656C111.73 10.8587 112.098 11.1413 112.397 11.504C112.706 11.8667 112.941 12.2987 113.101 12.8C113.261 13.2907 113.341 13.8187 113.341 14.384V14.624H108.429ZM111.101 13.28C111.048 12.9493 110.909 12.6827 110.685 12.48C110.472 12.2773 110.178 12.176 109.805 12.176C109.485 12.176 109.218 12.2827 109.005 12.496C108.792 12.6987 108.642 12.96 108.557 13.28H111.101ZM119.064 10.608H121.608L117.592 18.16L113.608 10.608H116.136L117.592 13.696L119.064 10.608Z" fill="#F6F6F6"/>
<defs>
<filter id="filter0_i_5_202" x="17.8333" y="7.41666" width="2.66666" height="2.91666" filterUnits="userSpaceOnUse" color-interpolation-filters="sRGB">
<feFlood flood-opacity="0" result="BackgroundImageFix"/>
<feBlend mode="normal" in="SourceGraphic" in2="BackgroundImageFix" result="shape"/>
<feColorMatrix in="SourceAlpha" type="matrix" values="0 0 0 0 0 0 0 0 0 0 0 0 0 0 0 0 0 0 127 0" result="hardAlpha"/>
<feOffset dy="-0.25"/>
<feGaussianBlur stdDeviation="0.15"/>
<feComposite in2="hardAlpha" operator="arithmetic" k2="-1" k3="1"/>
<feColorMatrix type="matrix" values="0 0 0 0 0 0 0 0 0 0 0 0 0 0 0 0 0 0 0.25 0"/>
<feBlend mode="normal" in2="shape" result="effect1_innerShadow_5_202"/>
</filter>
<filter id="filter1_i_5_202" x="15.1667" y="4.75" width="2.66666" height="2.91666" filterUnits="userSpaceOnUse" color-interpolation-filters="sRGB">
<feFlood flood-opacity="0" result="BackgroundImageFix"/>
<feBlend mode="normal" in="SourceGraphic" in2="BackgroundImageFix" result="shape"/>
<feColorMatrix in="SourceAlpha" type="matrix" values="0 0 0 0 0 0 0 0 0 0 0 0 0 0 0 0 0 0 127 0" result="hardAlpha"/>
<feOffset dy="-0.25"/>
<feGaussianBlur stdDeviation="0.15"/>
<feComposite in2="hardAlpha" operator="arithmetic" k2="-1" k3="1"/>
<feColorMatrix type="matrix" values="0 0 0 0 0 0 0 0 0 0 0 0 0 0 0 0 0 0 0.25 0"/>
<feBlend mode="normal" in2="shape" result="effect1_innerShadow_5_202"/>
</filter>
<filter id="filter2_i_5_202" x="12.5" y="7.41666" width="2.66666" height="2.91666" filterUnits="userSpaceOnUse" color-interpolation-filters="sRGB">
<feFlood flood-opacity="0" result="BackgroundImageFix"/>
<feBlend mode="normal" in="SourceGraphic" in2="BackgroundImageFix" result="shape"/>
<feColorMatrix in="SourceAlpha" type="matrix" values="0 0 0 0 0 0 0 0 0 0 0 0 0 0 0 0 0 0 127 0" result="hardAlpha"/>
<feOffset dy="-0.25"/>
<feGaussianBlur stdDeviation="0.15"/>
<feComposite in2="hardAlpha" operator="arithmetic" k2="-1" k3="1"/>
<feColorMatrix type="matrix" values="0 0 0 0 0 0 0 0 0 0 0 0 0 0 0 0 0 0 0.25 0"/>
<feBlend mode="normal" in2="shape" result="effect1_innerShadow_5_202"/>
</filter>
<filter id="filter3_i_5_202" x="15.1667" y="10.0833" width="2.66666" height="2.91666" filterUnits="userSpaceOnUse" color-interpolation-filters="sRGB">
<feFlood flood-opacity="0" result="BackgroundImageFix"/>
<feBlend mode="normal" in="SourceGraphic" in2="BackgroundImageFix" result="shape"/>
<feColorMatrix in="SourceAlpha" type="matrix" values="0 0 0 0 0 0 0 0 0 0 0 0 0 0 0 0 0 0 127 0" result="hardAlpha"/>
<feOffset dy="-0.25"/>
<feGaussianBlur stdDeviation="0.15"/>
<feComposite in2="hardAlpha" operator="arithmetic" k2="-1" k3="1"/>
<feColorMatrix type="matrix" values="0 0 0 0 0 0 0 0 0 0 0 0 0 0 0 0 0 0 0.25 0"/>
<feBlend mode="normal" in2="shape" result="effect1_innerShadow_5_202"/>
</filter>
<filter id="filter4_i_5_202" x="3.5" y="7.68332" width="3.2" height="2.38333" filterUnits="userSpaceOnUse" color-interpolation-filters="sRGB">
<feFlood flood-opacity="0" result="BackgroundImageFix"/>
<feBlend mode="normal" in="SourceGraphic" in2="BackgroundImageFix" result="shape"/>
<feColorMatrix in="SourceAlpha" type="matrix" values="0 0 0 0 0 0 0 0 0 0 0 0 0 0 0 0 0 0 127 0" result="hardAlpha"/>
<feOffset dy="-0.25"/>
<feGaussianBlur stdDeviation="0.15"/>
<feComposite in2="hardAlpha" operator="arithmetic" k2="-1" k3="1"/>
<feColorMatrix type="matrix" values="0 0 0 0 0 0 0 0 0 0 0 0 0 0 0 0 0 0 0.25 0"/>
<feBlend mode="normal" in2="shape" result="effect1_innerShadow_5_202"/>
</filter>
<filter id="filter5_i_5_202" x="6.43333" y="9.54999" width="2.13333" height="3.45001" filterUnits="userSpaceOnUse" color-interpolation-filters="sRGB">
<feFlood flood-opacity="0" result="BackgroundImageFix"/>
<feBlend mode="normal" in="SourceGraphic" in2="BackgroundImageFix" result="shape"/>
<feColorMatrix in="SourceAlpha" type="matrix" values="0 0 0 0 0 0 0 0 0 0 0 0 0 0 0 0 0 0 127 0" result="hardAlpha"/>
<feOffset dy="-0.25"/>
<feGaussianBlur stdDeviation="0.15"/>
<feComposite in2="hardAlpha" operator="arithmetic" k2="-1" k3="1"/>
<feColorMatrix type="matrix" values="0 0 0 0 0 0 0 0 0 0 0 0 0 0 0 0 0 0 0.25 0"/>
<feBlend mode="normal" in2="shape" result="effect1_innerShadow_5_202"/>
</filter>
<filter id="filter6_i_5_202" x="8.3" y="7.68335" width="3.2" height="2.38333" filterUnits="userSpaceOnUse" color-interpolation-filters="sRGB">
<feFlood flood-opacity="0" result="BackgroundImageFix"/>
<feBlend mode="normal" in="SourceGraphic" in2="BackgroundImageFix" result="shape"/>
<feColorMatrix in="SourceAlpha" type="matrix" values="0 0 0 0 0 0 0 0 0 0 0 0 0 0 0 0 0 0 127 0" result="hardAlpha"/>
<feOffset dy="-0.25"/>
<feGaussianBlur stdDeviation="0.15"/>
<feComposite in2="hardAlpha" operator="arithmetic" k2="-1" k3="1"/>
<feColorMatrix type="matrix" values="0 0 0 0 0 0 0 0 0 0 0 0 0 0 0 0 0 0 0.25 0"/>
<feBlend mode="normal" in2="shape" result="effect1_innerShadow_5_202"/>
</filter>
<filter id="filter7_i_5_202" x="6.43333" y="4.75" width="2.13333" height="3.45001" filterUnits="userSpaceOnUse" color-interpolation-filters="sRGB">
<feFlood flood-opacity="0" result="BackgroundImageFix"/>
<feBlend mode="normal" in="SourceGraphic" in2="BackgroundImageFix" result="shape"/>
<feColorMatrix in="SourceAlpha" type="matrix" values="0 0 0 0 0 0 0 0 0 0 0 0 0 0 0 0 0 0 127 0" result="hardAlpha"/>
<feOffset dy="-0.25"/>
<feGaussianBlur stdDeviation="0.15"/>
<feComposite in2="hardAlpha" operator="arithmetic" k2="-1" k3="1"/>
<feColorMatrix type="matrix" values="0 0 0 0 0 0 0 0 0 0 0 0 0 0 0 0 0 0 0.25 0"/>
<feBlend mode="normal" in2="shape" result="effect1_innerShadow_5_202"/>
</filter>
</defs>
</svg>
