<svg width="112" height="106" viewBox="0 0 112 106" fill="none" xmlns="http://www.w3.org/2000/svg">
<g filter="url(#filter0_d_127_216)">
<path d="M55.6185 60L17.2187 79.2M16.687 74.4L14.3467 80.772L20.7188 83.1125" stroke="#F85959" stroke-width="5" stroke-linejoin="bevel"/>
<path d="M55.619 60L94.019 79.2M94.5503 74.4L96.8908 80.772L90.5188 83.1125" stroke="#5E8FFA" stroke-width="5" stroke-linejoin="bevel"/>
<path d="M55.619 57.6V9.59998M55.619 9.59998L60.419 14.4M55.619 9.59998L50.8188 14.4" stroke="#4CF078" stroke-width="5" stroke-linejoin="bevel"/>
<path d="M31.6188 72L55.619 81.6" stroke="#4CF078" stroke-width="5" stroke-linejoin="bevel"/>
<path d="M79.619 72L55.619 81.6" stroke="#4CF078" stroke-width="5" stroke-linejoin="bevel"/>
<path d="M31.6188 38.4L55.619 28.8" stroke="#5E8FFA" stroke-width="5" stroke-linejoin="bevel"/>
<path d="M55.619 28.8L79.619 38.4" stroke="#F85959" stroke-width="5" stroke-linejoin="bevel"/>
<path d="M31.6188 38.4V72" stroke="#5E8FFA" stroke-width="5" stroke-linejoin="bevel"/>
<path d="M79.619 38.4V72" stroke="#F85959" stroke-width="5" stroke-linejoin="bevel"/>
<path d="M58.019 62.4H53.2188V57.6H58.019V62.4Z" stroke="#969696" stroke-width="5" stroke-linejoin="bevel"/>
</g>
<defs>
<filter id="filter0_d_127_216" x="-4.85333" y="-4" width="120" height="120" filterUnits="userSpaceOnUse" color-interpolation-filters="sRGB">
<feFlood flood-opacity="0" result="BackgroundImageFix"/>
<feColorMatrix in="SourceAlpha" type="matrix" values="0 0 0 0 0 0 0 0 0 0 0 0 0 0 0 0 0 0 127 0" result="hardAlpha"/>
<feOffset dy="8"/>
<feGaussianBlur stdDeviation="6"/>
<feComposite in2="hardAlpha" operator="out"/>
<feColorMatrix type="matrix" values="0 0 0 0 0 0 0 0 0 0 0 0 0 0 0 0 0 0 0.05 0"/>
<feBlend mode="normal" in2="BackgroundImageFix" result="effect1_dropShadow_127_216"/>
<feBlend mode="normal" in="SourceGraphic" in2="effect1_dropShadow_127_216" result="shape"/>
</filter>
</defs>
</svg>
